<svg width="165" height="318" viewBox="0 0 165 318" fill="none" xmlns="http://www.w3.org/2000/svg">
<path d="M66.0742 61C67.6742 58.2 68.4058 51.8296 68.5725 49.4963C68.9975 45.9926 62.0722 35.5 58.0722 25.5C54.0722 15.5 62.0722 11.4963 67.5722 6.49631C73.0722 1.49631 92.0722 7.49631 93.5722 8.49631C95.0722 9.49631 101.074 17 101.074 20C101.074 22.4331 100.405 29.4963 100.072 31.9963C101.405 33.4963 104.172 36.9963 104.572 38.9963C104.972 40.9963 102.739 41.4963 101.572 41.4963V45.9963C101.572 46.9963 102.072 48.4963 101.572 49.4963C101.072 50.4963 100.572 49.9963 100.072 51.9963C99.0722 55.9963 98.0722 56.9963 93.5722 56.9963C89.9722 56.9963 87.0722 55.9963 86.0722 55.4963C85.4055 56.663 84.0722 59.3963 84.0722 60.9963C84.0722 62.9963 83.5722 64.9963 84.0722 66.4963C84.5722 67.9963 89.5722 73.9963 91.0722 77.4963C92.5722 80.9963 90.5725 82.9963 87.5725 82.9963C84.5725 82.9963 64.0742 64.5 66.0742 61Z" fill="#7D3D23"/>
<path d="M86.0722 55.4963C85.4055 56.663 84.0722 59.3963 84.0722 60.9963C84.0722 62.9963 83.5722 64.9963 84.0722 66.4963C84.5722 67.9963 89.5722 73.9963 91.0722 77.4963C92.5722 80.9963 90.5725 82.9963 87.5725 82.9963C84.5725 82.9963 64.0742 64.5 66.0742 61C67.6742 58.2 68.4058 51.8296 68.5725 49.4963C68.9975 45.9926 62.0722 35.5 58.0722 25.5C54.0722 15.5 62.0722 11.4963 67.5722 6.49631C73.0722 1.49631 92.0722 7.49631 93.5722 8.49631C95.0722 9.49631 101.074 17 101.074 20C101.074 22.4331 100.405 29.4963 100.072 31.9963C101.405 33.4963 104.172 36.9963 104.572 38.9963C104.972 40.9963 102.739 41.4963 101.572 41.4963C101.572 42.663 101.572 45.1963 101.572 45.9963C101.572 46.9963 102.072 48.4963 101.572 49.4963C101.072 50.4963 100.572 49.9963 100.072 51.9963C99.0722 55.9963 98.0722 56.9963 93.5722 56.9963C89.9722 56.9963 87.0722 55.9963 86.0722 55.4963ZM86.0722 55.4963L80.0742 53" stroke="#380500" stroke-linecap="round"/>
<path d="M89.0752 3C95.4752 5 96.7419 9.16667 96.5752 11C94.5763 9.5 90.5742 12 89.0742 13.5C87.5742 15 83.5742 20.5 80.0742 24.5C76.5742 28.5 76.5742 31 76.5742 32C76.5742 33 75.5742 34 75.0742 33C74.5742 32 70.0742 29 68.5742 29C67.0742 29 64.0742 32 65.0742 37C65.8742 41 68.4076 42 70.0742 42C70.4076 42.5 70.8742 44.1 70.0742 44.5C69.0742 45 69.5742 47.5 69.0742 48C68.5742 48.5 66.0742 47.5 66.0742 48.5C66.5742 53 56.5742 59 50.0742 56C43.5742 53 40.5752 47.5 40.0752 41.5C39.5752 35.5 43.0752 30.5 46.5752 30C50.0752 29.5 51.0752 30.5 51.0752 30C51.0752 29.5 50.0752 20 50.0752 18C50.0752 16 52.0752 10.5 56.5752 6.5C61.0752 2.5 70.5752 0 73.0752 0C75.5752 0 81.0752 0.5 89.0752 3Z" fill="#2A160D"/>
<path opacity="0.5" d="M68.0742 34.0014V32.0014C68.7409 31.8348 70.0742 31.7014 70.0742 32.5014C70.0742 33.5014 72.0742 32.5 72.0742 33C72.0742 33.5 71.5742 34 72.0742 34.5C72.5742 35 73.5742 34.5 73.5742 35C73.5742 35.4 73.5742 35.8333 73.5742 36H73.0742V37H72.0742V38H71.0742V37L70.0742 36" stroke="#511E0D" stroke-linecap="round"/>
<path d="M73.0742 42H71.5742V43H73.0742V42Z" stroke="#AE7B66" stroke-linecap="round"/>
<path d="M93.0742 23.5C91.0742 23.9 89.2409 25.5008 88.5742 26.5008C88.7409 26.8339 89.3592 27.029 91.0742 26C93.5742 24.5 97.0742 25 97.5742 25C98.0742 25 98.0742 25.0008 98.0742 24.0008C98.0742 23.0008 95.5742 23 93.0742 23.5Z" fill="#300600" stroke="#300600" stroke-width="0.5" stroke-linecap="round"/>
<path d="M90.0742 32.0015C90.0808 31.9989 90.089 31.9979 90.0987 31.9984C90.3185 31.9507 91.2138 31.3621 91.5742 31.0015C92.374 30.2013 93.9076 30.3348 94.5742 30.5015C95.0742 31.0015 95.6742 32.2015 94.0742 33.0015C92.5201 33.7786 90.4275 32.0161 90.0987 31.9984C90.0892 32.0004 90.0811 32.0015 90.0742 32.0015Z" fill="#F4D9CE"/>
<path d="M90.0742 32.0015C90.3036 31.9099 92.4742 33.8015 94.0742 33.0015C95.6742 32.2015 95.0742 31.0015 94.5742 30.5015C93.9076 30.3348 92.374 30.2013 91.5742 31.0015C91.1983 31.3775 90.2409 32.0015 90.0742 32.0015Z" stroke="#F4D9CE" stroke-linecap="round"/>
<path d="M89.1488 31.9273C89.1228 31.9525 89.098 31.9771 89.0742 32.0009C89.0065 32.001 89.0396 31.9735 89.1488 31.9273C90.0311 31.0678 92.1313 29.3894 94.0742 29.0009C96.5742 28.5009 96.5742 31.5009 95.0742 33.0009C93.5742 34.5009 94.4265 31.3539 94.0733 31C93.6418 30.5677 89.8458 31.6317 89.1488 31.9273Z" fill="#2A0A00"/>
<path d="M89.0742 32.0009C89.9075 31.1675 92.0742 29.4009 94.0742 29.0009C96.5742 28.5009 96.5742 31.5009 95.0742 33.0009C93.5742 34.5009 94.4265 31.3539 94.0733 31C93.5742 30.5 88.5742 32.0017 89.0742 32.0009Z" stroke="#2A0A00" stroke-linecap="round"/>
<path d="M102.576 40.5C101.376 40.9 100.076 40 99.5761 39.5C99.0761 39.5 98.5761 41 100.576 41.5C102.576 42 104.076 40 102.576 40.5Z" fill="#481802"/>
<path d="M101.574 44.4947C100.774 44.0947 97.0742 45.1614 95.0742 45.4948C95.0742 46.4917 101.074 48.5 101.574 48C101.974 47.6 101.574 46.8333 101.574 46.5C102.074 46.1657 102.374 44.8947 101.574 44.4947Z" fill="#5E3323"/>
<path d="M101.574 46.5C102.074 46.1657 102.374 44.8947 101.574 44.4947C100.774 44.0947 97.0742 45.1614 95.0742 45.4948C95.0742 46.4917 101.074 48.5 101.574 48C101.974 47.6 101.574 46.8333 101.574 46.5ZM101.574 46.5L97.5742 45.9978" stroke="#380500" stroke-width="0.5" stroke-linecap="round"/>
<path d="M8.0731 285.997C9.2731 284.397 15.9064 276.664 19.0731 272.997C21.072 271.497 26.5742 278.497 25.5742 281.497C24.5742 284.497 24.0742 290.497 24.0742 292.997C24.0742 295.497 26.5742 302.497 28.0742 304.997C29.5742 307.497 32.0742 308.997 30.5742 310.497C29.0742 311.997 18.0731 306.997 11.0731 299.497C4.0731 291.997 6.5731 287.997 8.0731 285.997Z" fill="#69321D" stroke="#3B2319" stroke-linecap="round"/>
<path d="M0.0736255 294.5C0.873626 291.7 6.07363 287 8.57363 285C10.5738 288 15.0742 294.8 17.0742 298C19.5742 302 25.0742 307 27.0742 307.5C29.0742 308 28.5742 305.5 29.0742 306C29.5742 306.5 32.5742 308.5 35.0742 310C37.5742 311.5 39.0742 313.5 38.0742 316C37.0742 318.5 26.5742 318.5 22.5742 316.5C18.5742 314.5 10.5736 303.5 9.57363 303.5C8.57363 303.5 -0.926374 298 0.0736255 294.5Z" fill="#29150C"/>
<path d="M122.073 301.001C122.073 299.801 119.406 294.168 118.073 291.501C117.573 290.001 130.573 287.001 131.073 287.501C131.573 288.001 132.073 294.001 134.573 296.001C137.073 298.001 149.073 301.001 150.073 301.001C151.073 301.001 154.573 302.501 152.073 306.501C149.573 310.501 123.073 310.501 122.573 309.501C122.073 308.501 122.073 302.501 122.073 301.001Z" fill="#69321D" stroke="#3B2319" stroke-linecap="round"/>
<path d="M123.575 316.5C121.575 314.5 121.741 309.333 122.075 307C122.188 306 123.575 306.5 125.074 306.5C126.574 306.5 140.574 307.5 144.574 305.5C148.574 303.5 150.074 301 150.574 301C151.074 301 157.574 301 161.074 301.5C164.574 302 165.574 304 164.574 306C163.574 308 157.074 311 150.574 313C144.074 315 138.574 314.5 137.074 316C135.574 317.5 126.075 319 123.575 316.5Z" fill="#29150C"/>
<path d="M55.5742 185.5C56.7742 177.1 61.0742 165 63.0742 160C71.9076 167.833 89.4742 184.4 89.0742 188C88.5742 192.5 73.0742 226 70.5742 231C68.0742 236 62.5742 242 56.5742 249C51.7742 254.6 36.9076 274.667 30.0742 284C27.9076 283.833 22.7742 282.7 19.5742 279.5C15.5742 275.5 15.0742 274.5 15.0742 273.5C15.0742 272.5 32.5742 240 35.5742 235.5C38.5742 231 47.0742 225 49.5742 220.5C52.0742 216 54.0742 196 55.5742 185.5Z" fill="#6B371D" stroke="#581E08" stroke-linecap="round"/>
<path d="M38.0747 135.5C38.4747 134.3 39.908 131.667 40.5747 130.5C43.9078 131 50.6742 132.7 51.0742 135.5C51.5742 139 48.5742 145.5 47.0742 149C45.5742 152.5 43.0742 162 43.0742 164C43.0742 166 43.5742 167.5 44.0742 169C44.5742 170.5 44.0742 177 43.0742 179.5C42.0742 182 41.0742 186.5 40.5747 187C40.0751 187.5 39.0742 186.5 39.0742 184.5C39.0742 182.9 39.4076 179.5 39.5742 178C38.7409 178.833 36.9742 181.2 36.5742 184C36.0742 187.5 36.5742 193.5 34.0742 193C31.5742 192.5 26.5747 185.5 26.0747 184C25.5747 182.5 25.5747 177 27.5747 173.5C29.5747 170 32.0747 166.5 33.0747 162.5C34.0747 158.5 37.5747 137 38.0747 135.5Z" fill="#75391F" stroke="#260A00" stroke-linecap="round"/>
<path d="M126.572 149.002C122.972 145.802 113.072 132.669 108.572 126.502C105.572 124.502 98.5723 134.002 99.0723 135.002C99.5723 136.002 119.072 154.002 119.572 155.002C120.072 156.002 120.072 158.502 121.572 161.002C123.072 163.502 126.572 167.002 127.572 169.502C128.572 172.002 128.072 175.002 129.072 175.002C130.072 175.002 132.572 175.002 133.072 176.002C133.572 177.002 135.072 177.002 135.572 176.002C136.072 175.002 136.072 173.502 136.572 173.502C137.072 173.502 137.572 175.502 138.572 175.002C139.572 174.502 139.572 172.002 139.572 169.502C139.572 167.002 138.572 163.002 137.572 161.002C136.572 159.002 131.072 153.002 126.572 149.002Z" fill="#75391F" stroke="#260A00" stroke-linecap="round"/>
<path d="M97.0742 108.5C101.394 115.38 109.862 128.773 110.532 129.479C110.56 129.472 110.574 129.478 110.574 129.5C110.574 129.516 110.56 129.509 110.532 129.479C109.927 129.646 103.008 136.522 101.574 137C100.074 137.5 88.5742 130.5 88.5742 130C88.5742 129.6 94.2409 115.5 97.0742 108.5Z" fill="#D0AF90"/>
<path d="M97.0742 108.5C101.574 115.667 110.574 129.9 110.574 129.5C110.574 129 103.074 136.5 101.574 137C100.074 137.5 88.5742 130.5 88.5742 130C88.5742 129.6 94.2409 115.5 97.0742 108.5Z" stroke="#241103" stroke-linecap="round"/>
<path d="M57.0742 72.5016C58.2742 68.5016 62.9076 63.5016 65.0742 61.5016C66.0742 61.0016 72.5742 64.5016 74.5742 66.0016C76.5742 67.5016 89.0742 75.5016 90.0742 75.5016C91.0742 75.5016 94.0742 80.0016 99.0742 86.5016C104.074 93.0016 103.074 96.5016 102.574 99.5016C102.074 102.502 100.074 106.002 99.0742 109.002C98.0742 112.002 98.0742 121.502 98.0742 123.502C98.0742 125.502 97.5742 125.502 95.5742 127.502C93.5742 129.502 66.0742 127.502 65.5742 125.502C65.1742 123.902 63.0742 114.472 62.0742 109.957C59.5685 114.492 57.3523 118.556 56.5742 120.502C54.5742 125.502 52.5742 135.002 51.5742 137.002C50.5742 139.002 49.5742 138.002 45.5742 137.502C41.5742 137.002 38.5742 136.002 38.5742 132.502C38.5742 129.002 41.5742 118.502 42.5742 115.502C43.5742 112.502 48.0742 98.0016 49.5742 94.0016C51.0742 90.0016 55.5742 77.5016 57.0742 72.5016Z" fill="#E3C8AA"/>
<path d="M71.5742 91.5016C70.6578 94.5563 66.009 102.836 62.0742 109.957M62.0742 109.957C59.5685 114.492 57.3523 118.556 56.5742 120.502C54.5742 125.502 52.5742 135.002 51.5742 137.002C50.5742 139.002 49.5742 138.002 45.5742 137.502C41.5742 137.002 38.5742 136.002 38.5742 132.502C38.5742 129.002 41.5742 118.502 42.5742 115.502C43.5742 112.502 48.0742 98.0016 49.5742 94.0016C51.0742 90.0016 55.5742 77.5016 57.0742 72.5016C58.2742 68.5016 62.9076 63.5016 65.0742 61.5016C66.0742 61.0016 72.5742 64.5016 74.5742 66.0016C76.5742 67.5016 89.0742 75.5016 90.0742 75.5016C91.0742 75.5016 94.0742 80.0016 99.0742 86.5016C104.074 93.0016 103.074 96.5016 102.574 99.5016C102.074 102.502 100.074 106.002 99.0742 109.002C98.0742 112.002 98.0742 121.502 98.0742 123.502C98.0742 125.502 97.5742 125.502 95.5742 127.502C93.5742 129.502 66.0742 127.502 65.5742 125.502C65.1742 123.902 63.0742 114.472 62.0742 109.957Z" stroke="#493729" stroke-linecap="round"/>
<path d="M88.0745 124.499C83.6745 124.099 70.9079 122.665 65.0745 121.999C63.0749 121.771 63.0742 127.499 62.5742 129.999C62.0742 132.499 55.5745 142.499 53.5745 148.499C51.5745 154.499 52.5745 164.499 54.5745 167.999C56.5745 171.499 70.5745 191.999 75.0745 198.999C79.5745 205.999 95.5745 227.499 96.5745 230.499C97.5745 233.499 98.5745 250.499 100.575 255.499C102.175 259.499 112.241 284.832 117.075 296.999C117.908 297.332 120.675 297.699 125.075 296.499C130.575 294.999 135.075 292.499 136.075 291.499C137.075 290.499 134.575 285.499 134.075 282.999C133.575 280.499 125.075 249.999 124.075 246.499C123.075 242.999 118.575 220.999 118.575 218.999C118.575 216.999 112.075 196.499 109.575 189.999C107.575 184.799 101.075 168.165 98.0745 160.499V132V124.999C96.5745 124.999 92.4745 124.899 88.0745 124.499Z" fill="#783F21"/>
<path d="M98.0745 160.499L94.0745 153.499M98.0745 160.499C101.075 168.165 107.575 184.799 109.575 189.999C112.075 196.499 118.575 216.999 118.575 218.999C118.575 220.999 123.075 242.999 124.075 246.499C125.075 249.999 133.575 280.499 134.075 282.999C134.575 285.499 137.075 290.499 136.075 291.499C135.075 292.499 130.575 294.999 125.075 296.499C120.675 297.699 117.908 297.332 117.075 296.999C112.241 284.832 102.175 259.499 100.575 255.499C98.5745 250.499 97.5745 233.499 96.5745 230.499C95.5745 227.499 79.5745 205.999 75.0745 198.999C70.5745 191.999 56.5745 171.499 54.5745 167.999C52.5745 164.499 51.5745 154.499 53.5745 148.499C55.5745 142.499 62.0742 132.499 62.5742 129.999C63.0742 127.499 63.0749 121.771 65.0745 121.999C70.9079 122.665 83.6745 124.099 88.0745 124.499C92.4745 124.899 96.5745 124.999 98.0745 124.999V132M98.0745 160.499V132M98.0745 132C90.9078 131.666 76.0742 130.798 74.0742 129.999C72.0742 129.2 68.9076 128.333 67.5742 128" stroke="#581E08" stroke-linecap="round"/>
</svg>
