<svg width="100" height="100" viewBox="0 0 100 100" fill="none" xmlns="http://www.w3.org/2000/svg">
<path d="M50 0C22.48 0 0 22.4 0 50C0 77.6 22.48 100 50 100C77.6 100 100 77.6 100 50C100 22.4 77.6 0 50 0Z" fill="#D9D4CA"/>
<path d="M49.9981 2.08105C23.5981 2.08105 2.07812 23.6011 2.07812 50.0011C2.07812 76.4811 23.5981 97.9211 49.9981 97.9211C76.3981 97.9211 97.9181 76.4011 97.9181 50.0011C97.9181 23.6011 76.4781 2.08105 49.9981 2.08105Z" fill="#5B3A29"/>
<path d="M29.8366 40.401C28.0766 40.721 27.7567 43.201 29.1167 44.721C27.9167 44.561 26.1566 42.961 21.9166 44.241C20.4766 44.721 18.7967 45.281 18.5567 47.121C18.3967 48.481 20.2366 50.001 21.4366 50.881C22.6366 51.841 24.6367 51.921 25.5967 53.441C26.4767 54.721 27.1167 56.721 27.3567 58.481C27.7567 61.921 27.6766 66.241 30.0766 69.041C30.5566 67.361 29.2766 63.601 29.2766 58.641C29.2766 56.801 28.5567 54.721 27.5167 53.361C29.5167 53.201 29.5166 53.441 29.6766 52.881C29.8366 52.241 29.5166 51.601 29.0366 51.041C27.5966 49.361 25.5967 50.241 23.7567 49.681C22.5567 49.281 20.7166 48.641 20.6366 46.961C20.5566 45.841 24.1567 45.601 24.1567 45.601C27.0367 45.841 26.7166 47.441 28.6366 47.601C30.2366 47.761 30.9566 46.001 31.4366 44.961C32.2366 43.441 33.1166 39.921 29.8366 40.401Z" fill="#D9D4CA"/>
<path d="M42.4818 61.2795C43.8418 59.2795 45.2018 54.7994 44.4018 52.9594C43.1218 52.4794 41.5218 51.4395 40.6418 49.9995C39.6818 48.6395 39.1218 47.1195 37.5218 46.6395C36.4018 46.2395 35.2018 46.4795 34.2418 46.9595C32.8018 47.8395 32.4018 49.8394 32.2418 51.3594C32.1618 54.6394 32.7218 59.4395 34.1618 62.4795C35.0418 64.7195 36.9618 68.4795 39.3618 71.9995C38.6418 66.4795 41.7618 62.7995 42.4818 61.2795ZM38.1618 54.0795C37.5218 52.9595 35.8418 53.1995 35.1218 52.7195C33.8418 51.9195 33.9218 50.1595 35.1218 49.1195C36.6418 47.7595 40.5618 52.1595 39.7618 55.6795C39.2818 55.7594 39.1218 55.5195 38.1618 54.0795Z" fill="#D9D4CA"/>
<path d="M55.0392 76.2373C53.3592 76.3973 51.5992 76.7973 50.1592 76.7173C48.7192 76.7173 46.8792 76.3973 45.2792 76.2373C45.0392 76.2373 44.7992 76.3973 44.7992 76.3973C43.8392 78.4773 49.3592 79.5973 50.1592 79.5173C50.9592 79.5173 56.4792 78.3973 55.5192 76.3973C55.4392 76.3973 55.2792 76.2373 55.0392 76.2373Z" fill="#D9D4CA"/>
<path d="M50.16 58.3184C50.08 58.3184 50.08 58.3184 50.16 58.3184C48.56 58.3184 47.68 59.6784 46.24 61.1984C43.76 63.9184 38.64 70.7184 42.32 73.9184C44 75.3584 46.16 76.3184 49.12 75.4384C49.84 74.9584 49.44 73.4384 49.04 72.7184C47.68 70.8784 45.44 71.5984 44.88 70.7184C44.32 69.8384 44.72 69.1984 45.04 68.7184C45.52 68.0784 46.4 68.2384 47.12 68.3984C48.4 68.7184 49.28 69.1984 50 69.9984C50.8 69.1984 51.68 68.7184 52.88 68.3984C53.6 68.2384 54.4 68.0784 54.96 68.7184C55.36 69.1984 55.68 69.8384 55.12 70.7184C54.48 71.5984 52.4 70.8784 50.96 72.7184C50.56 73.4384 50.08 74.9584 50.88 75.4384C53.92 76.3184 56 75.3584 57.68 73.9184C61.44 70.7184 56.32 63.9184 53.76 61.1984C52.48 59.6784 51.6 58.3984 50.16 58.3184Z" fill="#D9D4CA"/>
<path d="M81.9192 47.2021C81.6792 45.3621 80.0792 44.7221 78.5592 44.3221C74.3192 42.9621 72.5592 44.6421 71.3592 44.8021C72.7192 43.2821 72.3992 40.7221 70.6392 40.4821C67.3592 40.0021 68.2392 43.5221 69.0392 45.1221C69.5192 46.1621 70.2392 47.8421 71.8392 47.7621C73.8392 47.6021 73.5192 46.0021 76.3992 45.7621C76.3992 45.7621 79.9992 46.0021 79.9192 47.1221C79.7592 48.8021 77.9192 49.4421 76.7192 49.8421C74.9592 50.4021 72.8792 49.5221 71.4392 51.2021C70.9592 51.7621 70.6392 52.4021 70.7992 53.0421C70.9592 53.6821 71.0392 53.3621 73.0392 53.5221C71.9192 54.8821 71.2792 56.9621 71.2792 58.8021C71.1992 63.6821 69.9992 67.5221 70.4792 69.2021C72.8792 66.3221 72.7992 62.0821 73.1992 58.6421C73.4392 56.8821 74.0792 54.8821 74.9592 53.6021C75.9992 52.0821 77.8392 52.0021 79.1192 51.0421C80.2392 50.0821 82.0792 48.6421 81.9192 47.2021Z" fill="#D9D4CA"/>
<path d="M65.8417 46.9595C64.9617 46.4795 63.6817 46.2395 62.6417 46.6395C60.9617 47.1195 60.4817 48.6395 59.5217 49.9995C58.5617 51.4395 57.0417 52.3994 55.7617 52.9594C54.9617 54.7994 56.3217 59.2795 57.6817 61.2795C58.4017 62.7994 61.5217 66.4794 60.8817 72.0794C63.2817 68.5594 65.2817 64.7994 66.0817 62.5594C67.5217 59.5194 68.1617 54.7195 68.0017 51.4395C67.6817 49.8395 67.2817 47.7595 65.8417 46.9595ZM64.8817 52.7195C64.1617 53.1995 62.4817 52.9594 61.8417 54.0794C60.9617 55.5995 60.7217 55.7594 60.3217 55.6795C59.4417 52.1594 63.3617 47.6795 64.8817 49.1195C66.1617 50.1595 66.1617 51.8395 64.8817 52.7195Z" fill="#D9D4CA"/>
<path d="M49.9987 4.6377C25.0387 4.6377 4.71875 25.0377 4.71875 49.9977C4.71875 74.9577 25.0387 95.3577 50.0787 95.3577C75.0387 95.3577 95.3587 74.9577 95.3587 49.9977C95.3587 25.0377 74.9587 4.6377 49.9987 4.6377ZM78.4788 81.3577C77.1188 81.9177 75.6787 82.1577 74.2388 81.5177C73.1188 81.0377 72.4788 79.9177 72.2388 78.7177C71.9987 76.8777 72.9588 74.7977 73.8388 73.3577C75.0387 71.3577 77.8388 67.7577 81.0387 65.3577C85.5988 61.9977 88.7988 61.0377 87.5987 60.2377C86.7988 59.6777 82.4788 62.0777 81.5987 62.4777C76.7988 65.0377 70.0788 72.2377 69.3587 77.5977C68.7187 81.8377 73.5987 84.7977 76.8787 83.6777C66.1587 92.7977 54.2387 93.1977 50.0787 93.2777C45.9187 93.1977 33.9188 92.7977 23.2788 83.6777C26.5588 84.7977 31.4387 81.8377 30.7987 77.5977C29.9987 72.2377 23.2788 65.0377 18.4788 62.5577C17.5988 62.0777 13.2788 59.7577 12.4788 60.3177C11.2788 61.1177 14.4788 61.9977 19.0387 65.4377C22.2388 67.8377 24.9587 71.3577 26.2388 73.4377C27.1187 74.8777 28.1588 77.0377 27.9188 78.7977C27.7588 79.9977 27.0388 81.1177 25.9188 81.5977C24.4788 82.2377 23.0388 81.9977 21.6788 81.4377C19.5188 80.6377 17.7587 78.9577 16.3188 76.9577C13.4388 73.1177 10.7188 68.6377 9.27875 63.9977C10.4788 66.7177 18.1588 77.9177 21.5188 78.0777C25.0387 78.2377 18.0788 68.9577 13.3588 65.0377C12.2388 64.0777 10.8788 62.9577 10.6388 61.2777C10.3988 59.9977 11.1188 59.1977 12.3187 59.1177C14.2388 59.0377 19.1188 61.5977 19.1988 61.5177C10.6388 46.1577 23.7588 38.3177 18.3188 34.9577C16.3988 33.7577 12.3988 34.9577 10.2387 35.2777C30.3988 23.3577 33.9987 35.2777 40.0787 40.7177C41.0387 41.5977 45.2788 40.7177 46.1587 39.6777C47.2788 38.3977 49.3587 33.6777 46.9588 30.6377C43.4388 26.1577 28.7987 12.9577 15.4388 24.6377C21.6788 14.0777 36.7987 6.39769 50.0787 6.71769C63.2787 6.39769 78.3187 14.0777 84.7988 24.5577C71.4388 12.8777 56.7987 26.0777 53.1987 30.5577C50.7987 33.5977 52.8787 38.3177 53.9987 39.5977C54.8787 40.6377 59.1187 41.4377 60.0787 40.6377C66.1587 35.1977 69.6787 23.2777 89.9188 35.1977C87.7588 34.8777 83.6787 33.6777 81.8388 34.8777C76.3988 38.2377 89.5187 45.9977 80.9587 61.4377C81.0387 61.5177 85.9987 58.9577 87.8388 59.0377C89.1188 59.1177 89.7588 59.9177 89.5188 61.1977C89.2787 62.9577 87.9187 64.0777 86.7988 64.9577C82.0788 68.8777 75.1188 78.1577 78.6388 77.9977C82.0788 77.8377 89.7588 66.5577 90.9587 63.9177C89.5187 68.6377 86.7188 73.0377 83.9188 76.8777C82.3988 78.9577 80.6387 80.6377 78.4788 81.3577Z" fill="#D9D4CA"/>
</svg>
